<mxfile host="app.diagrams.net" agent="Mozilla/5.0 (Windows NT 10.0; Win64; x64; rv:133.0) Gecko/20100101 Firefox/133.0" version="25.0.3">
  <diagram name="Database Schema" id="WorckNoQa_a7-6flLv2A">
    <mxGraphModel dx="999" dy="483" grid="1" gridSize="10" guides="1" tooltips="1" connect="1" arrows="1" fold="1" page="1" pageScale="1" pageWidth="850" pageHeight="1100" math="0" shadow="0">
      <root>
        <mxCell id="0" />
        <mxCell id="1" parent="0" />
        <mxCell id="SaeYf9ztZKroc9d7Jyfg-9" value="Inicio" style="ellipse;whiteSpace=wrap;html=1;fillColor=#d5e8d4;" vertex="1" parent="1">
          <mxGeometry x="300" y="50" width="120" height="60" as="geometry" />
        </mxCell>
        <mxCell id="SaeYf9ztZKroc9d7Jyfg-10" value="¿Usuario existente?" style="rhombus;whiteSpace=wrap;html=1;fillColor=#fff2cc;" vertex="1" parent="1">
          <mxGeometry x="300" y="150" width="160" height="80" as="geometry" />
        </mxCell>
        <mxCell id="SaeYf9ztZKroc9d7Jyfg-11" value="Registrar usuario" style="rounded=1;whiteSpace=wrap;html=1;fillColor=#dae8fc;" vertex="1" parent="1">
          <mxGeometry x="150" y="300" width="140" height="60" as="geometry" />
        </mxCell>
        <mxCell id="SaeYf9ztZKroc9d7Jyfg-12" value="Consultar libros disponibles" style="rounded=1;whiteSpace=wrap;html=1;fillColor=#f8cecc;" vertex="1" parent="1">
          <mxGeometry x="300" y="300" width="180" height="60" as="geometry" />
        </mxCell>
        <mxCell id="SaeYf9ztZKroc9d7Jyfg-13" value="Realizar préstamo" style="rounded=1;whiteSpace=wrap;html=1;fillColor=#dae8fc;" vertex="1" parent="1">
          <mxGeometry x="300" y="450" width="140" height="60" as="geometry" />
        </mxCell>
        <mxCell id="SaeYf9ztZKroc9d7Jyfg-14" value="Registrar devolución" style="rounded=1;whiteSpace=wrap;html=1;fillColor=#dae8fc;" vertex="1" parent="1">
          <mxGeometry x="150" y="450" width="140" height="60" as="geometry" />
        </mxCell>
        <mxCell id="SaeYf9ztZKroc9d7Jyfg-15" value="Fin" style="ellipse;whiteSpace=wrap;html=1;fillColor=#d5e8d4;" vertex="1" parent="1">
          <mxGeometry x="300" y="600" width="120" height="60" as="geometry" />
        </mxCell>
        <mxCell id="SaeYf9ztZKroc9d7Jyfg-16" edge="1" parent="1" source="SaeYf9ztZKroc9d7Jyfg-9" target="SaeYf9ztZKroc9d7Jyfg-10">
          <mxGeometry relative="1" as="geometry" />
        </mxCell>
        <mxCell id="SaeYf9ztZKroc9d7Jyfg-17" edge="1" parent="1" source="SaeYf9ztZKroc9d7Jyfg-10" target="SaeYf9ztZKroc9d7Jyfg-11">
          <mxGeometry relative="1" as="geometry" />
          <mxPoint x="240" y="240" as="sourcePoint" />
        </mxCell>
        <mxCell id="SaeYf9ztZKroc9d7Jyfg-18" edge="1" parent="1" source="SaeYf9ztZKroc9d7Jyfg-10" target="SaeYf9ztZKroc9d7Jyfg-12">
          <mxGeometry relative="1" as="geometry" />
        </mxCell>
        <mxCell id="SaeYf9ztZKroc9d7Jyfg-19" edge="1" parent="1" source="SaeYf9ztZKroc9d7Jyfg-12" target="SaeYf9ztZKroc9d7Jyfg-13">
          <mxGeometry relative="1" as="geometry" />
        </mxCell>
        <mxCell id="SaeYf9ztZKroc9d7Jyfg-20" edge="1" parent="1" source="SaeYf9ztZKroc9d7Jyfg-12" target="SaeYf9ztZKroc9d7Jyfg-14">
          <mxGeometry relative="1" as="geometry" />
        </mxCell>
        <mxCell id="SaeYf9ztZKroc9d7Jyfg-21" edge="1" parent="1" source="SaeYf9ztZKroc9d7Jyfg-13" target="SaeYf9ztZKroc9d7Jyfg-15">
          <mxGeometry relative="1" as="geometry" />
        </mxCell>
        <mxCell id="SaeYf9ztZKroc9d7Jyfg-22" edge="1" parent="1" source="SaeYf9ztZKroc9d7Jyfg-14" target="SaeYf9ztZKroc9d7Jyfg-15">
          <mxGeometry relative="1" as="geometry" />
        </mxCell>
      </root>
    </mxGraphModel>
  </diagram>
</mxfile>
